<svg width="59" height="17" viewBox="0 0 59 17" fill="none" xmlns="http://www.w3.org/2000/svg">
<path d="M0.292969 11V10.4199H0.673828C0.998047 10.4199 1.1875 10.375 1.24219 10.2852C1.30078 10.1914 1.33008 10.0547 1.33008 9.875C1.33008 9.87109 1.33008 9.77148 1.33008 9.57617C1.33008 9.38086 1.33008 9.125 1.33008 8.80859C1.33008 8.48828 1.33008 8.13867 1.33008 7.75977C1.33008 7.37695 1.32812 6.99609 1.32422 6.61719C1.32422 6.23438 1.32422 5.88477 1.32422 5.56836C1.32422 5.24805 1.32422 4.99219 1.32422 4.80078C1.32422 4.60547 1.32422 4.50781 1.32422 4.50781C1.32422 4.30859 1.27734 4.17969 1.18359 4.12109C1.09375 4.05859 0.904297 4.02539 0.615234 4.02148C0.568359 4.01758 0.517578 4.01562 0.462891 4.01562C0.412109 4.01562 0.355469 4.01562 0.292969 4.01562V3.44141H3.31641C4.87891 3.44141 6.05469 3.74609 6.84375 4.35547C7.63281 4.96094 8.02734 5.88867 8.02734 7.13867C8.02734 8.00195 7.86328 8.7207 7.53516 9.29492C7.21094 9.86523 6.70703 10.293 6.02344 10.5781C5.33984 10.8594 4.45898 11 3.38086 11H0.292969ZM2.39648 10.3496H3.59766C4.65234 10.3496 5.46289 10.1016 6.0293 9.60547C6.59961 9.10547 6.88477 8.29102 6.88477 7.16211C6.88477 6.11523 6.60352 5.33984 6.04102 4.83594C5.47852 4.33203 4.66602 4.08008 3.60352 4.08008H2.39648V10.3496ZM8.99414 11V10.4668C9.2793 10.4668 9.48047 10.457 9.59766 10.4375C9.71875 10.4141 9.79297 10.375 9.82031 10.3203C9.84766 10.2656 9.86133 10.1875 9.86133 10.0859V6.49414C9.86133 6.38477 9.79883 6.32227 9.67383 6.30664C9.54883 6.29102 9.33203 6.28125 9.02344 6.27734C9.02344 6.1875 9.02344 6.09961 9.02344 6.01367C9.02344 5.92773 9.02344 5.8418 9.02344 5.75586C9.18359 5.75586 9.33984 5.75586 9.49219 5.75586C9.64453 5.75586 9.79297 5.75391 9.9375 5.75C10.0938 5.74609 10.2461 5.74219 10.3945 5.73828C10.543 5.73438 10.6934 5.73047 10.8457 5.72656V10.1094C10.8457 10.2852 10.9121 10.3887 11.0449 10.4199C11.1816 10.4512 11.4082 10.4668 11.7246 10.4668V11C11.623 11 11.4863 11 11.3145 11C11.1465 10.9961 10.9727 10.9941 10.793 10.9941C10.6172 10.9941 10.4648 10.9941 10.3359 10.9941C10.207 10.9902 10.1309 10.9883 10.1074 10.9883C9.88867 10.9883 9.69336 10.9902 9.52148 10.9941C9.34961 10.998 9.17383 11 8.99414 11ZM10.3066 4.60156C10.1348 4.60156 9.99609 4.55078 9.89062 4.44922C9.78906 4.34766 9.73828 4.21484 9.73828 4.05078C9.73828 3.88672 9.78906 3.75586 9.89062 3.6582C9.99609 3.56055 10.1328 3.51172 10.3008 3.51172C10.4727 3.51172 10.6094 3.56055 10.7109 3.6582C10.8125 3.75586 10.8633 3.88867 10.8633 4.05664C10.8633 4.2168 10.8125 4.34766 10.7109 4.44922C10.6094 4.55078 10.4746 4.60156 10.3066 4.60156ZM12.2285 11V10.4668C12.5293 10.4668 12.7422 10.457 12.8672 10.4375C12.9922 10.418 13.0684 10.3809 13.0957 10.3262C13.123 10.2715 13.1367 10.1914 13.1367 10.0859V6.54688C13.1367 6.41016 13.082 6.33203 12.9727 6.3125C12.8672 6.28906 12.6289 6.27734 12.2578 6.27734V5.75586C12.3164 5.75586 12.4102 5.75586 12.5391 5.75586C12.6719 5.75586 12.7949 5.75781 12.9082 5.76172C13.0215 5.76172 13.0781 5.76172 13.0781 5.76172C13.2383 5.76172 13.4023 5.75781 13.5703 5.75C13.7383 5.74219 13.9102 5.73633 14.0859 5.73242V6.79883C14.2734 6.43555 14.5352 6.15039 14.8711 5.94336C15.207 5.73633 15.6016 5.63281 16.0547 5.63281C16.2305 5.63281 16.4082 5.64453 16.5879 5.66797V6.94531C16.5293 6.94531 16.4707 6.94531 16.4121 6.94531C16.3535 6.94531 16.2949 6.94531 16.2363 6.94531C16.1582 6.75781 16.0605 6.60938 15.9434 6.5C15.8301 6.38672 15.6699 6.33008 15.4629 6.33008C15.0801 6.33008 14.7637 6.50977 14.5137 6.86914C14.2676 7.22852 14.1406 7.69336 14.1328 8.26367C14.1328 8.26367 14.1328 8.32617 14.1328 8.45117C14.1328 8.57227 14.1328 8.72461 14.1328 8.9082C14.1328 9.08789 14.1328 9.27148 14.1328 9.45898C14.1328 9.64258 14.1328 9.79883 14.1328 9.92773C14.1328 10.0566 14.1328 10.127 14.1328 10.1387C14.1328 10.3066 14.2051 10.4043 14.3496 10.4316C14.4941 10.4551 14.7559 10.4668 15.1348 10.4668V11C14.8887 11 14.6484 10.998 14.4141 10.9941C14.1797 10.9902 13.8945 10.9883 13.5586 10.9883C13.2695 10.9883 13.0273 10.9902 12.832 10.9941C12.6406 10.998 12.4395 11 12.2285 11ZM19.998 11.1641C19.4082 11.1641 18.9004 11.0488 18.4746 10.8184C18.0527 10.5879 17.7285 10.2656 17.502 9.85156C17.2754 9.43359 17.1621 8.94727 17.1621 8.39258C17.1621 7.83008 17.2773 7.33984 17.5078 6.92188C17.7383 6.50391 18.0625 6.17969 18.4805 5.94922C18.8984 5.71484 19.3848 5.59766 19.9395 5.59766C20.502 5.59766 20.9863 5.71289 21.3926 5.94336C21.7988 6.16992 22.1113 6.5 22.3301 6.93359C22.5527 7.36328 22.666 7.88086 22.6699 8.48633L22.3184 8.5918H18.1699C18.1777 9.2168 18.3594 9.70703 18.7148 10.0625C19.0742 10.418 19.5469 10.5957 20.1328 10.5957C20.5391 10.5957 20.8945 10.5156 21.1992 10.3555C21.5039 10.1914 21.7285 9.92188 21.873 9.54688H22.582C22.4258 10.082 22.1191 10.4863 21.6621 10.7598C21.2051 11.0293 20.6504 11.1641 19.998 11.1641ZM18.1758 8.08203H21.7207C21.6738 7.48438 21.4961 7.01562 21.1875 6.67578C20.8828 6.33594 20.4707 6.16602 19.9512 6.16602C19.4551 6.16602 19.0508 6.33789 18.7383 6.68164C18.4297 7.02539 18.2422 7.49219 18.1758 8.08203ZM23.3906 11V10.4668C23.7227 10.459 23.9551 10.4395 24.0879 10.4082C24.2246 10.373 24.293 10.2598 24.293 10.0684C24.293 10.0684 24.293 9.96289 24.293 9.75195C24.293 9.54102 24.293 9.26367 24.293 8.91992C24.293 8.57227 24.293 8.19141 24.293 7.77734C24.293 7.36328 24.293 6.94922 24.293 6.53516C24.293 6.12109 24.293 5.74219 24.293 5.39844C24.293 5.05078 24.293 4.77148 24.293 4.56055C24.293 4.34961 24.293 4.24414 24.293 4.24414C24.293 4.0957 24.2227 4.01172 24.082 3.99219C23.9414 3.97266 23.7207 3.96094 23.4199 3.95703V3.42969C23.498 3.42969 23.5723 3.42969 23.6426 3.42969C23.7168 3.42969 23.7871 3.42969 23.8535 3.42969C23.9199 3.42969 23.9824 3.42969 24.041 3.42969C24.1035 3.42969 24.1641 3.42969 24.2227 3.42969C24.4141 3.42578 24.5918 3.42188 24.7559 3.41797C24.9199 3.41406 25.0918 3.41016 25.2715 3.40625V8.09375L26.8535 6.9043C27.0488 6.75977 27.1953 6.64062 27.293 6.54688C27.3945 6.44922 27.4453 6.38086 27.4453 6.3418C27.4453 6.31445 27.418 6.29492 27.3633 6.2832C27.3125 6.27148 27.2422 6.26562 27.1523 6.26562C27.0625 6.26172 26.9648 6.25977 26.8594 6.25977L26.877 5.75586C27.0801 5.75977 27.2598 5.76367 27.416 5.76758C27.5762 5.76758 27.7227 5.76758 27.8555 5.76758C28.0742 5.76758 28.2988 5.76758 28.5293 5.76758C28.7598 5.76367 29.0234 5.75977 29.3203 5.75586V6.27148C29.2695 6.27148 29.2227 6.27148 29.1797 6.27148C29.1367 6.27148 29.0957 6.27344 29.0566 6.27734C28.9316 6.28125 28.8262 6.29688 28.7402 6.32422C28.6543 6.34766 28.5527 6.40039 28.4355 6.48242C28.3184 6.56445 28.1445 6.68945 27.9141 6.85742L26.2676 8.07617L28.5527 10.168C28.6934 10.2969 28.8184 10.3809 28.9277 10.4199C29.041 10.4551 29.1621 10.4727 29.291 10.4727C29.334 10.4727 29.377 10.4727 29.4199 10.4727C29.4668 10.4688 29.5156 10.4668 29.5664 10.4668V11C29.4414 11 29.3145 11 29.1855 11C29.0605 10.9961 28.9316 10.9941 28.7988 10.9941C28.6699 10.9902 28.5332 10.9883 28.3887 10.9883C28.1035 10.9883 27.8496 10.9902 27.627 10.9941C27.4043 10.998 27.1699 11 26.9238 11V10.4668C26.9902 10.4668 27.0488 10.4668 27.0996 10.4668C27.1543 10.4668 27.2012 10.4648 27.2402 10.4609C27.4121 10.457 27.498 10.4277 27.498 10.373C27.498 10.3301 27.4688 10.2793 27.4102 10.2207C27.3555 10.1582 27.2812 10.084 27.1875 9.99805L25.5234 8.48047L25.2715 8.64453V10.0742C25.2715 10.2383 25.3262 10.3457 25.4355 10.3965C25.5488 10.4434 25.7988 10.4668 26.1855 10.4668V11C25.9824 11 25.7754 11 25.5645 11C25.3535 10.9961 25.1152 10.9922 24.8496 10.9883C24.8301 10.9883 24.7617 10.9902 24.6445 10.9941C24.5312 10.9941 24.3945 10.9941 24.2344 10.9941C24.0742 10.9941 23.916 10.9961 23.7598 11C23.6074 11 23.4844 11 23.3906 11ZM32.2852 11.1348C31.9219 11.1348 31.6445 11.0586 31.4531 10.9062C31.2656 10.75 31.1387 10.5312 31.0723 10.25C31.0059 9.96875 30.9727 9.64062 30.9727 9.26562V6.27734H30.0117V5.81445C30.1406 5.81055 30.2871 5.80273 30.4512 5.79102C30.6191 5.77539 30.7637 5.76172 30.8848 5.75C31.0098 5.73828 31.0723 5.73242 31.0723 5.73242C31.0762 5.69336 31.084 5.60742 31.0957 5.47461C31.1113 5.33789 31.127 5.19141 31.1426 5.03516C31.1582 4.875 31.1719 4.73633 31.1836 4.61914C31.1953 4.49805 31.2012 4.43359 31.2012 4.42578L31.9453 4.27344V5.75586H33.3516V6.27734H31.9512V9.21289C31.9512 9.60742 31.9727 9.92188 32.0156 10.1562C32.0586 10.3906 32.2188 10.5078 32.4961 10.5078C32.6094 10.5078 32.7109 10.4609 32.8008 10.3672C32.8945 10.2734 32.9414 10.1094 32.9414 9.875L33.4746 9.82227C33.4746 10.2793 33.3555 10.6133 33.1172 10.8242C32.8828 11.0312 32.6055 11.1348 32.2852 11.1348ZM34.043 11V10.4199H34.7285C34.9043 10.4199 35.0098 10.3809 35.0449 10.3027C35.0801 10.2246 35.0977 10.1074 35.0977 9.95117V4.54883C35.0977 4.34961 35.084 4.21289 35.0566 4.13867C35.0293 4.06055 34.9199 4.02148 34.7285 4.02148H34.0781V3.44141H40.1836V5.375H39.5332V5.13477C39.5332 4.79102 39.5176 4.54883 39.4863 4.4082C39.459 4.26758 39.4102 4.18359 39.3398 4.15625C39.2734 4.125 39.1816 4.10938 39.0645 4.10938H36.1699V6.81641H37.8516C37.9492 6.81641 38.0312 6.81641 38.0977 6.81641C38.1641 6.8125 38.2168 6.77734 38.2559 6.71094C38.2949 6.64453 38.3164 6.51562 38.3203 6.32422H38.7363V7.91211H38.3203C38.3164 7.66992 38.2754 7.52734 38.1973 7.48438C38.123 7.44141 38.0117 7.41992 37.8633 7.41992H36.1699V10.0273C36.1699 10.2227 36.2266 10.3379 36.3398 10.373C36.4531 10.4043 36.6504 10.4199 36.9316 10.4199H37.248V11C37.0059 11 36.7676 11 36.5332 11C36.3027 10.9961 36.0176 10.9922 35.6777 10.9883C35.3223 10.9883 35.0254 10.9902 34.7871 10.9941C34.5527 10.998 34.3047 11 34.043 11ZM42.2461 11.123C41.6875 11.123 41.2402 10.9727 40.9043 10.6719C40.5684 10.3711 40.4004 9.98828 40.4004 9.52344C40.4004 9.02344 40.5996 8.62109 40.998 8.31641C41.3965 8.01172 41.9531 7.85938 42.668 7.85938C42.9102 7.85938 43.1562 7.87891 43.4062 7.91797C43.6602 7.95312 43.916 8.00391 44.1738 8.07031V7.20312C44.1738 6.85156 44.0547 6.58203 43.8164 6.39453C43.582 6.20312 43.2207 6.10742 42.7324 6.10742C41.9316 6.10742 41.4551 6.43164 41.3027 7.08008L40.7637 7.01562L40.8398 5.98438C41.0898 5.87109 41.3828 5.7793 41.7188 5.70898C42.0547 5.63477 42.4297 5.59766 42.8438 5.59766C43.6719 5.59766 44.2637 5.74805 44.6191 6.04883C44.9785 6.34961 45.1582 6.82227 45.1582 7.4668V9.6875C45.1582 9.95703 45.1719 10.1465 45.1992 10.2559C45.2266 10.3652 45.2793 10.4297 45.3574 10.4492C45.4355 10.4688 45.5527 10.4785 45.709 10.4785H45.9727V11C45.9102 10.9961 45.8477 10.9941 45.7852 10.9941C45.7227 10.9941 45.6602 10.9961 45.5977 11C45.5352 11 45.4727 11 45.4102 11C45.1992 11.0039 44.9922 11.0078 44.7891 11.0117C44.5859 11.0156 44.3926 11.0195 44.209 11.0234V10.2207C43.9746 10.5176 43.6953 10.7422 43.3711 10.8945C43.0508 11.0469 42.6758 11.123 42.2461 11.123ZM42.5449 10.5605C42.7988 10.5605 43.0508 10.5078 43.3008 10.4023C43.5508 10.293 43.7578 10.1328 43.9219 9.92188C44.0898 9.71094 44.1738 9.44727 44.1738 9.13086V8.55664C43.9395 8.49023 43.7168 8.43945 43.5059 8.4043C43.2949 8.36914 43.0898 8.35156 42.8906 8.35156C42.4219 8.35156 42.0508 8.45312 41.7773 8.65625C41.5078 8.85547 41.373 9.13477 41.373 9.49414C41.373 9.81445 41.4824 10.0723 41.7012 10.2676C41.9199 10.4629 42.2012 10.5605 42.5449 10.5605ZM41.9707 4.57812C41.8105 4.57812 41.6816 4.5293 41.584 4.43164C41.4863 4.33398 41.4375 4.20703 41.4375 4.05078C41.4375 3.89453 41.4863 3.76953 41.584 3.67578C41.6816 3.58203 41.8125 3.53516 41.9766 3.53516C42.1406 3.53516 42.2695 3.58203 42.3633 3.67578C42.4609 3.76953 42.5098 3.89648 42.5098 4.05664C42.5098 4.21289 42.4609 4.33984 42.3633 4.4375C42.2695 4.53125 42.1387 4.57812 41.9707 4.57812ZM44.1562 4.57812C43.9961 4.57812 43.8672 4.5293 43.7695 4.43164C43.6719 4.33398 43.623 4.20703 43.623 4.05078C43.623 3.89453 43.6719 3.76953 43.7695 3.67578C43.8672 3.58203 43.998 3.53516 44.1621 3.53516C44.3262 3.53516 44.457 3.58203 44.5547 3.67578C44.6523 3.76953 44.7012 3.89648 44.7012 4.05664C44.7012 4.21289 44.6523 4.33984 44.5547 4.4375C44.457 4.53125 44.3242 4.57812 44.1562 4.57812ZM46.5645 11V10.4668C46.8652 10.4668 47.0781 10.457 47.2031 10.4375C47.3281 10.418 47.4043 10.3809 47.4316 10.3262C47.459 10.2715 47.4727 10.1914 47.4727 10.0859V6.54688C47.4727 6.41016 47.418 6.33203 47.3086 6.3125C47.2031 6.28906 46.9648 6.27734 46.5938 6.27734V5.75586C46.6523 5.75586 46.7461 5.75586 46.875 5.75586C47.0078 5.75586 47.1309 5.75781 47.2441 5.76172C47.3574 5.76172 47.4141 5.76172 47.4141 5.76172C47.5742 5.76172 47.7383 5.75781 47.9062 5.75C48.0742 5.74219 48.2461 5.73633 48.4219 5.73242V6.79883C48.6094 6.43555 48.8711 6.15039 49.207 5.94336C49.543 5.73633 49.9375 5.63281 50.3906 5.63281C50.5664 5.63281 50.7441 5.64453 50.9238 5.66797V6.94531C50.8652 6.94531 50.8066 6.94531 50.748 6.94531C50.6895 6.94531 50.6309 6.94531 50.5723 6.94531C50.4941 6.75781 50.3965 6.60938 50.2793 6.5C50.166 6.38672 50.0059 6.33008 49.7988 6.33008C49.416 6.33008 49.0996 6.50977 48.8496 6.86914C48.6035 7.22852 48.4766 7.69336 48.4688 8.26367C48.4688 8.26367 48.4688 8.32617 48.4688 8.45117C48.4688 8.57227 48.4688 8.72461 48.4688 8.9082C48.4688 9.08789 48.4688 9.27148 48.4688 9.45898C48.4688 9.64258 48.4688 9.79883 48.4688 9.92773C48.4688 10.0566 48.4688 10.127 48.4688 10.1387C48.4688 10.3066 48.541 10.4043 48.6855 10.4316C48.8301 10.4551 49.0918 10.4668 49.4707 10.4668V11C49.2246 11 48.9844 10.998 48.75 10.9941C48.5156 10.9902 48.2305 10.9883 47.8945 10.9883C47.6055 10.9883 47.3633 10.9902 47.168 10.9941C46.9766 10.998 46.7754 11 46.5645 11ZM54.0352 11.123C53.5234 11.123 53.0762 11.0098 52.6934 10.7832C52.3105 10.5566 52.0137 10.2383 51.8027 9.82812C51.5918 9.41797 51.4863 8.93945 51.4863 8.39258C51.4863 7.83398 51.5938 7.3457 51.8086 6.92773C52.0234 6.50977 52.3242 6.18555 52.7109 5.95508C53.0977 5.7207 53.5449 5.60352 54.0527 5.60352C54.9043 5.60352 55.5488 5.92773 55.9863 6.57617V4.18555C55.9863 4.08398 55.9336 4.02148 55.8281 3.99805C55.7227 3.97461 55.5449 3.96094 55.2949 3.95703C55.2559 3.95703 55.2148 3.95703 55.1719 3.95703C55.1289 3.95703 55.084 3.95703 55.0371 3.95703V3.42383C55.1348 3.42383 55.2305 3.42383 55.3242 3.42383C55.418 3.42383 55.5117 3.42383 55.6055 3.42383C55.8477 3.41992 56.084 3.41602 56.3145 3.41211C56.5488 3.4082 56.7676 3.4043 56.9707 3.40039V10.25C56.9707 10.3398 57.0137 10.3984 57.0996 10.4258C57.1855 10.4531 57.3516 10.4707 57.5977 10.4785C57.6328 10.4785 57.6699 10.4785 57.709 10.4785C57.748 10.4785 57.7891 10.4785 57.832 10.4785V11C57.7227 11.0039 57.6113 11.0039 57.498 11C57.3887 11 57.2773 11.002 57.1641 11.0059C56.9688 11.0059 56.7754 11.0078 56.584 11.0117C56.3965 11.0156 56.2148 11.0195 56.0391 11.0234C56.0391 11.0156 56.0391 10.9492 56.0391 10.8242C56.0391 10.6992 56.0371 10.5645 56.0332 10.4199C56.0332 10.2754 56.0312 10.1719 56.0273 10.1094C55.8086 10.4414 55.5312 10.6934 55.1953 10.8652C54.8594 11.0371 54.4727 11.123 54.0352 11.123ZM54.2578 10.4844C54.8047 10.4844 55.2344 10.2969 55.5469 9.92188C55.8633 9.54688 56.0215 9.03516 56.0215 8.38672C56.0215 7.73438 55.8574 7.20898 55.5293 6.81055C55.2051 6.41211 54.7754 6.21289 54.2402 6.21289C53.7168 6.21289 53.293 6.41016 52.9688 6.80469C52.6484 7.19922 52.4883 7.72266 52.4883 8.375C52.4883 9.01953 52.6484 9.5332 52.9688 9.91602C53.2891 10.2949 53.7188 10.4844 54.2578 10.4844Z" fill="white"/>
<line y1="13.5" x2="58" y2="13.5" stroke="white"/>
</svg>
